<svg xmlns="http://www.w3.org/2000/svg" viewBox="0 0 406 105" width="406" height="105" role="img" aria-label="reaper">
  <rect x="35" y="8" width="7.88" height="7.88" rx="0.63" fill="#141815"/>
  <rect x="44" y="8" width="7.88" height="7.88" rx="0.63" fill="#141815"/>
  <rect x="53" y="8" width="7.88" height="7.88" rx="0.63" fill="#141815"/>
  <rect x="62" y="8" width="7.88" height="7.88" rx="0.63" fill="#141815"/>
  <rect x="71" y="8" width="7.88" height="7.88" rx="0.63" fill="#141815"/>
  <rect x="26" y="17" width="7.88" height="7.88" rx="0.63" fill="#141815"/>
  <rect x="35" y="17" width="7.88" height="7.88" rx="0.63" fill="#141815"/>
  <rect x="44" y="17" width="7.88" height="7.88" rx="0.63" fill="#141815"/>
  <rect x="53" y="17" width="7.88" height="7.88" rx="0.63" fill="#141815"/>
  <rect x="62" y="17" width="7.88" height="7.88" rx="0.63" fill="#141815"/>
  <rect x="71" y="17" width="7.88" height="7.88" rx="0.63" fill="#141815"/>
  <rect x="80" y="17" width="7.88" height="7.88" rx="0.63" fill="#141815"/>
  <rect x="17" y="26" width="7.88" height="7.88" rx="0.63" fill="#141815"/>
  <rect x="26" y="26" width="7.88" height="7.88" rx="0.63" fill="#141815"/>
  <rect x="35" y="26" width="7.88" height="7.88" rx="0.63" fill="#141815"/>
  <rect x="44" y="26" width="7.88" height="7.88" rx="0.63" fill="#141815"/>
  <rect x="53" y="26" width="7.88" height="7.88" rx="0.63" fill="#141815"/>
  <rect x="62" y="26" width="7.88" height="7.88" rx="0.63" fill="#141815"/>
  <rect x="71" y="26" width="7.88" height="7.88" rx="0.63" fill="#141815"/>
  <rect x="80" y="26" width="7.88" height="7.88" rx="0.63" fill="#141815"/>
  <rect x="89" y="26" width="7.88" height="7.88" rx="0.63" fill="#141815"/>
  <rect x="17" y="35" width="7.88" height="7.88" rx="0.63" fill="#141815"/>
  <rect x="26" y="35" width="7.88" height="7.88" rx="0.63" fill="#141815"/>
  <rect x="35" y="35" width="7.88" height="7.88" rx="0.63" fill="#141815"/>
  <rect x="44" y="35" width="7.88" height="7.88" rx="0.63" fill="#141815"/>
  <rect x="53" y="35" width="7.88" height="7.88" rx="0.63" fill="#141815"/>
  <rect x="62" y="35" width="7.88" height="7.88" rx="0.63" fill="#141815"/>
  <rect x="71" y="35" width="7.88" height="7.88" rx="0.63" fill="#141815"/>
  <rect x="80" y="35" width="7.88" height="7.88" rx="0.63" fill="#141815"/>
  <rect x="89" y="35" width="7.88" height="7.88" rx="0.63" fill="#141815"/>
  <rect x="17" y="44" width="7.88" height="7.88" rx="0.63" fill="#141815"/>
  <rect x="44" y="44" width="7.88" height="7.88" rx="0.63" fill="#141815"/>
  <rect x="53" y="44" width="7.88" height="7.88" rx="0.63" fill="#141815"/>
  <rect x="62" y="44" width="7.88" height="7.88" rx="0.63" fill="#141815"/>
  <rect x="89" y="44" width="7.88" height="7.88" rx="0.63" fill="#141815"/>
  <rect x="17" y="53" width="7.88" height="7.88" rx="0.63" fill="#141815"/>
  <rect x="44" y="53" width="7.88" height="7.88" rx="0.63" fill="#141815"/>
  <rect x="53" y="53" width="7.88" height="7.88" rx="0.63" fill="#141815"/>
  <rect x="62" y="53" width="7.88" height="7.88" rx="0.63" fill="#141815"/>
  <rect x="89" y="53" width="7.88" height="7.88" rx="0.63" fill="#141815"/>
  <rect x="17" y="62" width="7.88" height="7.88" rx="0.63" fill="#141815"/>
  <rect x="26" y="62" width="7.88" height="7.88" rx="0.63" fill="#141815"/>
  <rect x="35" y="62" width="7.88" height="7.88" rx="0.63" fill="#141815"/>
  <rect x="44" y="62" width="7.88" height="7.88" rx="0.63" fill="#141815"/>
  <rect x="62" y="62" width="7.88" height="7.88" rx="0.63" fill="#141815"/>
  <rect x="71" y="62" width="7.88" height="7.88" rx="0.63" fill="#141815"/>
  <rect x="80" y="62" width="7.88" height="7.88" rx="0.63" fill="#141815"/>
  <rect x="89" y="62" width="7.88" height="7.88" rx="0.63" fill="#141815"/>
  <rect x="26" y="71" width="7.88" height="7.88" rx="0.63" fill="#141815"/>
  <rect x="35" y="71" width="7.88" height="7.88" rx="0.63" fill="#141815"/>
  <rect x="44" y="71" width="7.88" height="7.88" rx="0.63" fill="#141815"/>
  <rect x="62" y="71" width="7.88" height="7.88" rx="0.63" fill="#141815"/>
  <rect x="71" y="71" width="7.88" height="7.88" rx="0.63" fill="#141815"/>
  <rect x="80" y="71" width="7.88" height="7.88" rx="0.63" fill="#141815"/>
  <rect x="26" y="80" width="7.88" height="7.88" rx="0.63" fill="#141815"/>
  <rect x="35" y="80" width="7.88" height="7.88" rx="0.63" fill="#141815"/>
  <rect x="44" y="80" width="7.88" height="7.88" rx="0.63" fill="#141815"/>
  <rect x="53" y="80" width="7.88" height="7.88" rx="0.63" fill="#141815"/>
  <rect x="62" y="80" width="7.88" height="7.88" rx="0.63" fill="#141815"/>
  <rect x="71" y="80" width="7.88" height="7.88" rx="0.63" fill="#141815"/>
  <rect x="80" y="80" width="7.88" height="7.88" rx="0.63" fill="#141815"/>
  <rect x="35" y="89" width="7.88" height="7.88" rx="0.63" fill="#141815"/>
  <rect x="53" y="89" width="7.88" height="7.88" rx="0.63" fill="#141815"/>
  <rect x="71" y="89" width="7.88" height="7.88" rx="0.63" fill="#141815"/>
  <rect x="71" y="44" width="7.88" height="7.88" rx="0.63" fill="#149E52"/>
  <rect x="80" y="44" width="7.88" height="7.88" rx="0.63" fill="#149E52"/>
  <rect x="71" y="53" width="7.88" height="7.88" rx="0.63" fill="#149E52"/>
  <rect x="80" y="53" width="7.88" height="7.88" rx="0.63" fill="#149E52"/>
  <g fill="#141815" transform="translate(131.875,71.99) scale(0.074,-0.074)">
  <path transform="translate(0,0)" d="M97 0V550H219V443Q229 497 268.5 528.5Q308 560 371 560Q455 560 502.0 506.0Q549 452 549 355V303H424V349Q424 399 398.0 425.5Q372 452 324 452Q274 452 248.0 422.0Q222 392 222 337V0Z"/>
  <path transform="translate(600,0)" d="M301 -10Q231 -10 179.0 17.0Q127 44 98.5 93.5Q70 143 70 210V340Q70 407 98.5 456.5Q127 506 179.0 533.0Q231 560 301 560Q370 560 421.5 533.0Q473 506 501.5 457.5Q530 409 530 344V244H190V206Q190 150 219.0 121.5Q248 93 301 93Q340 93 367.5 106.5Q395 120 400 146H524Q511 75 450.0 32.5Q389 -10 301 -10ZM190 344V325L410 326V345Q410 402 382.0 433.0Q354 464 301 464Q246 464 218.0 432.5Q190 401 190 344Z"/>
  <path transform="translate(1200,0)" d="M239 -10Q155 -10 106.5 37.5Q58 85 58 162Q58 242 113.0 289.5Q168 337 264 337H398V376Q398 459 301 459Q257 459 231.0 442.0Q205 425 202 394H82Q86 468 144.5 514.0Q203 560 302 560Q407 560 465.0 511.0Q523 462 523 373V0H401V103Q394 50 351.0 20.0Q308 -10 239 -10ZM279 92Q334 92 366.0 119.0Q398 146 398 191V256H270Q229 256 205.0 233.0Q181 210 181 174Q181 137 206.5 114.5Q232 92 279 92Z"/>
  <path transform="translate(1800,0)" d="M77 -180V550H199V449Q214 501 253.0 530.5Q292 560 350 560Q403 560 443.5 534.0Q484 508 506.5 460.5Q529 413 529 350V201Q529 106 480.0 48.0Q431 -10 350 -10Q292 -10 252.5 20.0Q213 50 198 104L202 -26V-180ZM303 98Q351 98 377.5 124.0Q404 150 404 204V346Q404 400 377.5 426.0Q351 452 303 452Q255 452 228.5 423.0Q202 394 202 341V209Q202 156 228.5 127.0Q255 98 303 98Z"/>
  <path transform="translate(2400,0)" d="M301 -10Q231 -10 179.0 17.0Q127 44 98.5 93.5Q70 143 70 210V340Q70 407 98.5 456.5Q127 506 179.0 533.0Q231 560 301 560Q370 560 421.5 533.0Q473 506 501.5 457.5Q530 409 530 344V244H190V206Q190 150 219.0 121.5Q248 93 301 93Q340 93 367.5 106.5Q395 120 400 146H524Q511 75 450.0 32.5Q389 -10 301 -10ZM190 344V325L410 326V345Q410 402 382.0 433.0Q354 464 301 464Q246 464 218.0 432.5Q190 401 190 344Z"/>
  <path transform="translate(3000,0)" d="M97 0V550H219V443Q229 497 268.5 528.5Q308 560 371 560Q455 560 502.0 506.0Q549 452 549 355V303H424V349Q424 399 398.0 425.5Q372 452 324 452Q274 452 248.0 422.0Q222 392 222 337V0Z"/>
  </g>
</svg>
