<svg xmlns="http://www.w3.org/2000/svg" viewBox="0 0 407 415" width="407" height="415" role="img" aria-label="reaper">
  <rect width="407" height="415" fill="#0C0F0D"/>
  <rect x="40" y="40" width="330" height="308" fill="none" stroke="#7A857C" stroke-opacity="0.5" stroke-width="1.5" stroke-dasharray="6 6"/>
  <line x1="84" y1="84" x2="84" y2="304" stroke="#7A857C" stroke-opacity="0.28" stroke-width="1"/>
  <line x1="106" y1="84" x2="106" y2="304" stroke="#7A857C" stroke-opacity="0.28" stroke-width="1"/>
  <line x1="128" y1="84" x2="128" y2="304" stroke="#7A857C" stroke-opacity="0.28" stroke-width="1"/>
  <line x1="150" y1="84" x2="150" y2="304" stroke="#7A857C" stroke-opacity="0.28" stroke-width="1"/>
  <line x1="172" y1="84" x2="172" y2="304" stroke="#7A857C" stroke-opacity="0.28" stroke-width="1"/>
  <line x1="194" y1="84" x2="194" y2="304" stroke="#7A857C" stroke-opacity="0.28" stroke-width="1"/>
  <line x1="216" y1="84" x2="216" y2="304" stroke="#7A857C" stroke-opacity="0.28" stroke-width="1"/>
  <line x1="238" y1="84" x2="238" y2="304" stroke="#7A857C" stroke-opacity="0.28" stroke-width="1"/>
  <line x1="260" y1="84" x2="260" y2="304" stroke="#7A857C" stroke-opacity="0.28" stroke-width="1"/>
  <line x1="282" y1="84" x2="282" y2="304" stroke="#7A857C" stroke-opacity="0.28" stroke-width="1"/>
  <line x1="304" y1="84" x2="304" y2="304" stroke="#7A857C" stroke-opacity="0.28" stroke-width="1"/>
  <line x1="326" y1="84" x2="326" y2="304" stroke="#7A857C" stroke-opacity="0.28" stroke-width="1"/>
  <line x1="84" y1="84" x2="326" y2="84" stroke="#7A857C" stroke-opacity="0.28" stroke-width="1"/>
  <line x1="84" y1="106" x2="326" y2="106" stroke="#7A857C" stroke-opacity="0.28" stroke-width="1"/>
  <line x1="84" y1="128" x2="326" y2="128" stroke="#7A857C" stroke-opacity="0.28" stroke-width="1"/>
  <line x1="84" y1="150" x2="326" y2="150" stroke="#7A857C" stroke-opacity="0.28" stroke-width="1"/>
  <line x1="84" y1="172" x2="326" y2="172" stroke="#7A857C" stroke-opacity="0.28" stroke-width="1"/>
  <line x1="84" y1="194" x2="326" y2="194" stroke="#7A857C" stroke-opacity="0.28" stroke-width="1"/>
  <line x1="84" y1="216" x2="326" y2="216" stroke="#7A857C" stroke-opacity="0.28" stroke-width="1"/>
  <line x1="84" y1="238" x2="326" y2="238" stroke="#7A857C" stroke-opacity="0.28" stroke-width="1"/>
  <line x1="84" y1="260" x2="326" y2="260" stroke="#7A857C" stroke-opacity="0.28" stroke-width="1"/>
  <line x1="84" y1="282" x2="326" y2="282" stroke="#7A857C" stroke-opacity="0.28" stroke-width="1"/>
  <line x1="84" y1="304" x2="326" y2="304" stroke="#7A857C" stroke-opacity="0.28" stroke-width="1"/>
  <rect x="150" y="84" width="19.25" height="19.25" rx="1.54" fill="#EAE4D6"/>
  <rect x="172" y="84" width="19.25" height="19.25" rx="1.54" fill="#EAE4D6"/>
  <rect x="194" y="84" width="19.25" height="19.25" rx="1.54" fill="#EAE4D6"/>
  <rect x="216" y="84" width="19.25" height="19.25" rx="1.54" fill="#EAE4D6"/>
  <rect x="238" y="84" width="19.25" height="19.25" rx="1.54" fill="#EAE4D6"/>
  <rect x="128" y="106" width="19.25" height="19.25" rx="1.54" fill="#EAE4D6"/>
  <rect x="150" y="106" width="19.25" height="19.25" rx="1.54" fill="#EAE4D6"/>
  <rect x="172" y="106" width="19.25" height="19.25" rx="1.54" fill="#EAE4D6"/>
  <rect x="194" y="106" width="19.25" height="19.25" rx="1.54" fill="#EAE4D6"/>
  <rect x="216" y="106" width="19.25" height="19.25" rx="1.54" fill="#EAE4D6"/>
  <rect x="238" y="106" width="19.25" height="19.25" rx="1.54" fill="#EAE4D6"/>
  <rect x="260" y="106" width="19.25" height="19.25" rx="1.54" fill="#EAE4D6"/>
  <rect x="106" y="128" width="19.25" height="19.25" rx="1.54" fill="#EAE4D6"/>
  <rect x="128" y="128" width="19.25" height="19.25" rx="1.54" fill="#EAE4D6"/>
  <rect x="150" y="128" width="19.25" height="19.25" rx="1.54" fill="#EAE4D6"/>
  <rect x="172" y="128" width="19.25" height="19.25" rx="1.54" fill="#EAE4D6"/>
  <rect x="194" y="128" width="19.25" height="19.25" rx="1.54" fill="#EAE4D6"/>
  <rect x="216" y="128" width="19.25" height="19.25" rx="1.54" fill="#EAE4D6"/>
  <rect x="238" y="128" width="19.25" height="19.25" rx="1.54" fill="#EAE4D6"/>
  <rect x="260" y="128" width="19.25" height="19.25" rx="1.54" fill="#EAE4D6"/>
  <rect x="282" y="128" width="19.25" height="19.25" rx="1.54" fill="#EAE4D6"/>
  <rect x="106" y="150" width="19.25" height="19.25" rx="1.54" fill="#EAE4D6"/>
  <rect x="128" y="150" width="19.25" height="19.25" rx="1.54" fill="#EAE4D6"/>
  <rect x="150" y="150" width="19.25" height="19.25" rx="1.54" fill="#EAE4D6"/>
  <rect x="172" y="150" width="19.25" height="19.25" rx="1.54" fill="#EAE4D6"/>
  <rect x="194" y="150" width="19.25" height="19.25" rx="1.54" fill="#EAE4D6"/>
  <rect x="216" y="150" width="19.25" height="19.25" rx="1.54" fill="#EAE4D6"/>
  <rect x="238" y="150" width="19.25" height="19.25" rx="1.54" fill="#EAE4D6"/>
  <rect x="260" y="150" width="19.25" height="19.25" rx="1.54" fill="#EAE4D6"/>
  <rect x="282" y="150" width="19.25" height="19.25" rx="1.54" fill="#EAE4D6"/>
  <rect x="106" y="172" width="19.25" height="19.25" rx="1.54" fill="#EAE4D6"/>
  <rect x="172" y="172" width="19.25" height="19.25" rx="1.54" fill="#EAE4D6"/>
  <rect x="194" y="172" width="19.25" height="19.25" rx="1.54" fill="#EAE4D6"/>
  <rect x="216" y="172" width="19.25" height="19.25" rx="1.54" fill="#EAE4D6"/>
  <rect x="282" y="172" width="19.25" height="19.25" rx="1.54" fill="#EAE4D6"/>
  <rect x="106" y="194" width="19.25" height="19.25" rx="1.54" fill="#EAE4D6"/>
  <rect x="172" y="194" width="19.25" height="19.25" rx="1.54" fill="#EAE4D6"/>
  <rect x="194" y="194" width="19.25" height="19.25" rx="1.54" fill="#EAE4D6"/>
  <rect x="216" y="194" width="19.25" height="19.25" rx="1.54" fill="#EAE4D6"/>
  <rect x="282" y="194" width="19.25" height="19.25" rx="1.54" fill="#EAE4D6"/>
  <rect x="106" y="216" width="19.25" height="19.25" rx="1.54" fill="#EAE4D6"/>
  <rect x="128" y="216" width="19.25" height="19.25" rx="1.54" fill="#EAE4D6"/>
  <rect x="150" y="216" width="19.25" height="19.25" rx="1.54" fill="#EAE4D6"/>
  <rect x="172" y="216" width="19.25" height="19.25" rx="1.54" fill="#EAE4D6"/>
  <rect x="216" y="216" width="19.25" height="19.25" rx="1.54" fill="#EAE4D6"/>
  <rect x="238" y="216" width="19.25" height="19.25" rx="1.54" fill="#EAE4D6"/>
  <rect x="260" y="216" width="19.25" height="19.25" rx="1.54" fill="#EAE4D6"/>
  <rect x="282" y="216" width="19.25" height="19.25" rx="1.54" fill="#EAE4D6"/>
  <rect x="128" y="238" width="19.25" height="19.25" rx="1.54" fill="#EAE4D6"/>
  <rect x="150" y="238" width="19.25" height="19.25" rx="1.54" fill="#EAE4D6"/>
  <rect x="172" y="238" width="19.25" height="19.25" rx="1.54" fill="#EAE4D6"/>
  <rect x="216" y="238" width="19.25" height="19.25" rx="1.54" fill="#EAE4D6"/>
  <rect x="238" y="238" width="19.25" height="19.25" rx="1.54" fill="#EAE4D6"/>
  <rect x="260" y="238" width="19.25" height="19.25" rx="1.54" fill="#EAE4D6"/>
  <rect x="128" y="260" width="19.25" height="19.25" rx="1.54" fill="#EAE4D6"/>
  <rect x="150" y="260" width="19.25" height="19.25" rx="1.54" fill="#EAE4D6"/>
  <rect x="172" y="260" width="19.25" height="19.25" rx="1.54" fill="#EAE4D6"/>
  <rect x="194" y="260" width="19.25" height="19.25" rx="1.54" fill="#EAE4D6"/>
  <rect x="216" y="260" width="19.25" height="19.25" rx="1.54" fill="#EAE4D6"/>
  <rect x="238" y="260" width="19.25" height="19.25" rx="1.54" fill="#EAE4D6"/>
  <rect x="260" y="260" width="19.25" height="19.25" rx="1.54" fill="#EAE4D6"/>
  <rect x="150" y="282" width="19.25" height="19.25" rx="1.54" fill="#EAE4D6"/>
  <rect x="194" y="282" width="19.25" height="19.25" rx="1.54" fill="#EAE4D6"/>
  <rect x="238" y="282" width="19.25" height="19.25" rx="1.54" fill="#EAE4D6"/>
  <rect x="238" y="172" width="19.25" height="19.25" rx="1.54" fill="#3FDD78"/>
  <rect x="260" y="172" width="19.25" height="19.25" rx="1.54" fill="#3FDD78"/>
  <rect x="238" y="194" width="19.25" height="19.25" rx="1.54" fill="#3FDD78"/>
  <rect x="260" y="194" width="19.25" height="19.25" rx="1.54" fill="#3FDD78"/>
  <g fill="#7A857C" transform="translate(40,382) scale(0.015,-0.015)">
  <path transform="translate(0,0)" d="M84 0V113H274V609L83 469V609L251 730H399V113H552V0Z"/>
  <path transform="translate(600,0)" d="M84 0V113H274V609L83 469V609L251 730H399V113H552V0Z"/>
  <path transform="translate(1800,0)" d="M36 0 228 284 49 550H190L275 415Q283 403 290.0 388.0Q297 373 300 364Q304 373 310.5 388.0Q317 403 325 415L410 550H552L373 284L564 0H422L327 151Q319 163 311.5 178.5Q304 194 300 203Q296 194 289.0 178.5Q282 163 274 151L178 0Z"/>
  <path transform="translate(3000,0)" d="M84 0V113H274V609L83 469V609L251 730H399V113H552V0Z"/>
  <path transform="translate(3600,0)" d="M300 -10Q229 -10 177.0 17.0Q125 44 96.5 93.0Q68 142 68 208V522Q68 588 96.5 637.0Q125 686 177.0 713.0Q229 740 300 740Q371 740 423.0 713.0Q475 686 503.5 637.0Q532 588 532 522V208Q532 142 503.5 93.0Q475 44 423.0 17.0Q371 -10 300 -10ZM300 98Q352 98 383.0 128.0Q414 158 414 208V522Q414 572 383.5 602.0Q353 632 300 632Q247 632 216.5 602.0Q186 572 186 522V208Q186 158 217.0 128.0Q248 98 300 98ZM300 305Q270 305 252.0 321.5Q234 338 234 368Q234 398 252.0 413.5Q270 429 300 429Q330 429 348.0 413.5Q366 398 366 368Q366 338 348.0 321.5Q330 305 300 305Z"/>
  <path transform="translate(4800,0)" d="M309 -10Q238 -10 185.5 16.5Q133 43 104.0 91.5Q75 140 75 206V344Q75 410 104.0 458.5Q133 507 185.5 533.5Q238 560 309 560Q412 560 474.5 506.5Q537 453 540 361H417Q414 404 384.5 427.5Q355 451 309 451Q258 451 229.0 423.5Q200 396 200 345V206Q200 155 229.0 127.0Q258 99 309 99Q356 99 385.0 122.5Q414 146 417 189H540Q537 97 474.5 43.5Q412 -10 309 -10Z"/>
  <path transform="translate(5400,0)" d="M301 -10Q231 -10 179.0 17.0Q127 44 98.5 93.5Q70 143 70 210V340Q70 407 98.5 456.5Q127 506 179.0 533.0Q231 560 301 560Q370 560 421.5 533.0Q473 506 501.5 457.5Q530 409 530 344V244H190V206Q190 150 219.0 121.5Q248 93 301 93Q340 93 367.5 106.5Q395 120 400 146H524Q511 75 450.0 32.5Q389 -10 301 -10ZM190 344V325L410 326V345Q410 402 382.0 433.0Q354 464 301 464Q246 464 218.0 432.5Q190 401 190 344Z"/>
  <path transform="translate(6000,0)" d="M389 0Q307 0 257.5 49.0Q208 98 208 178V617H27V730H333V181Q333 150 350.5 131.5Q368 113 398 113H559V0Z"/>
  <path transform="translate(6600,0)" d="M389 0Q307 0 257.5 49.0Q208 98 208 178V617H27V730H333V181Q333 150 350.5 131.5Q368 113 398 113H559V0Z"/>
  <path transform="translate(7800,0)" d="M152 -180V-76H307Q351 -76 375.0 -52.5Q399 -29 399 11V44L401 130Q384 84 346.5 58.5Q309 33 255 33Q171 33 121.5 89.5Q72 146 72 243V350Q72 446 121.5 503.0Q171 560 255 560Q309 560 346.5 534.5Q384 509 401 462V550H523V8Q523 -79 465.5 -129.5Q408 -180 309 -180ZM297 140Q345 140 371.5 168.5Q398 197 398 248V344Q398 395 371.5 423.5Q345 452 297 452Q249 452 223.0 424.5Q197 397 197 348V244Q197 195 223.0 167.5Q249 140 297 140Z"/>
  <path transform="translate(8400,0)" d="M97 0V550H219V443Q229 497 268.5 528.5Q308 560 371 560Q455 560 502.0 506.0Q549 452 549 355V303H424V349Q424 399 398.0 425.5Q372 452 324 452Q274 452 248.0 422.0Q222 392 222 337V0Z"/>
  <path transform="translate(9000,0)" d="M76 0V113H264V437H96V550H389V113H558V0ZM318 642Q280 642 258.0 661.5Q236 681 236 714Q236 747 258.0 766.5Q280 786 318 786Q356 786 378.0 766.5Q400 747 400 714Q400 681 378.0 661.5Q356 642 318 642Z"/>
  <path transform="translate(9600,0)" d="M250 -10Q170 -10 120.5 47.0Q71 104 71 200V349Q71 446 120.0 503.0Q169 560 250 560Q307 560 346.5 531.0Q386 502 402 450L398 576V730H523V0H401V100Q386 48 347.0 19.0Q308 -10 250 -10ZM297 98Q345 98 371.5 127.0Q398 156 398 209V341Q398 394 371.5 423.0Q345 452 297 452Q249 452 222.5 426.0Q196 400 196 346V204Q196 150 222.5 124.0Q249 98 297 98Z"/>
  <path transform="translate(10800,0)" d="M60 -110 410 830H540L190 -110Z"/>
  <path transform="translate(12000,0)" d="M152 -180V-76H307Q351 -76 375.0 -52.5Q399 -29 399 11V44L401 130Q384 84 346.5 58.5Q309 33 255 33Q171 33 121.5 89.5Q72 146 72 243V350Q72 446 121.5 503.0Q171 560 255 560Q309 560 346.5 534.5Q384 509 401 462V550H523V8Q523 -79 465.5 -129.5Q408 -180 309 -180ZM297 140Q345 140 371.5 168.5Q398 197 398 248V344Q398 395 371.5 423.5Q345 452 297 452Q249 452 223.0 424.5Q197 397 197 348V244Q197 195 223.0 167.5Q249 140 297 140Z"/>
  <path transform="translate(12600,0)" d="M239 -10Q155 -10 106.5 37.5Q58 85 58 162Q58 242 113.0 289.5Q168 337 264 337H398V376Q398 459 301 459Q257 459 231.0 442.0Q205 425 202 394H82Q86 468 144.5 514.0Q203 560 302 560Q407 560 465.0 511.0Q523 462 523 373V0H401V103Q394 50 351.0 20.0Q308 -10 239 -10ZM279 92Q334 92 366.0 119.0Q398 146 398 191V256H270Q229 256 205.0 233.0Q181 210 181 174Q181 137 206.5 114.5Q232 92 279 92Z"/>
  <path transform="translate(13200,0)" d="M77 -180V550H199V449Q214 501 253.0 530.5Q292 560 350 560Q403 560 443.5 534.0Q484 508 506.5 460.5Q529 413 529 350V201Q529 106 480.0 48.0Q431 -10 350 -10Q292 -10 252.5 20.0Q213 50 198 104L202 -26V-180ZM303 98Q351 98 377.5 124.0Q404 150 404 204V346Q404 400 377.5 426.0Q351 452 303 452Q255 452 228.5 423.0Q202 394 202 341V209Q202 156 228.5 127.0Q255 98 303 98Z"/>
  <path transform="translate(14400,0)" d="M82 395V510H518V395ZM82 150V265H518V150Z"/>
  <path transform="translate(15600,0)" d="M84 0V113H274V609L83 469V609L251 730H399V113H552V0Z"/>
  <path transform="translate(16200,0)" d="M60 -110 410 830H540L190 -110Z"/>
  <path transform="translate(16800,0)" d="M300 -10Q227 -10 171.0 17.5Q115 45 84.0 93.5Q53 142 53 206Q53 273 91.5 323.0Q130 373 192 386V388Q139 399 106.5 442.0Q74 485 74 544Q74 602 102.5 646.0Q131 690 182.0 715.0Q233 740 300 740Q367 740 418.5 715.0Q470 690 498.5 646.0Q527 602 527 544Q527 485 494.0 442.0Q461 399 408 388V386Q470 373 508.5 323.0Q547 273 547 206Q547 142 516.0 93.5Q485 45 429.0 17.5Q373 -10 300 -10ZM300 431Q347 431 376.0 459.5Q405 488 405 533Q405 579 376.0 607.5Q347 636 300 636Q253 636 224.0 607.5Q195 579 195 533Q195 488 224.0 459.5Q253 431 300 431ZM300 96Q355 96 390.0 128.0Q425 160 425 212Q425 265 390.0 297.5Q355 330 300 330Q245 330 210.0 297.5Q175 265 175 212Q175 160 210.0 128.0Q245 96 300 96Z"/>
  <path transform="translate(18000,0)" d="M77 -180V550H199V449Q214 501 253.0 530.5Q292 560 350 560Q403 560 443.5 534.0Q484 508 506.5 460.5Q529 413 529 350V201Q529 106 480.0 48.0Q431 -10 350 -10Q292 -10 252.5 20.0Q213 50 198 104L202 -26V-180ZM303 98Q351 98 377.5 124.0Q404 150 404 204V346Q404 400 377.5 426.0Q351 452 303 452Q255 452 228.5 423.0Q202 394 202 341V209Q202 156 228.5 127.0Q255 98 303 98Z"/>
  <path transform="translate(18600,0)" d="M76 0V113H264V437H96V550H389V113H558V0ZM318 642Q280 642 258.0 661.5Q236 681 236 714Q236 747 258.0 766.5Q280 786 318 786Q356 786 378.0 766.5Q400 747 400 714Q400 681 378.0 661.5Q356 642 318 642Z"/>
  <path transform="translate(19200,0)" d="M355 0Q278 0 232.5 44.5Q187 89 187 165V437H35V550H187V705H313V550H532V437H313V168Q313 144 326.5 128.5Q340 113 364 113H527V0Z"/>
  <path transform="translate(19800,0)" d="M309 -10Q238 -10 185.5 16.5Q133 43 104.0 91.5Q75 140 75 206V344Q75 410 104.0 458.5Q133 507 185.5 533.5Q238 560 309 560Q412 560 474.5 506.5Q537 453 540 361H417Q414 404 384.5 427.5Q355 451 309 451Q258 451 229.0 423.5Q200 396 200 345V206Q200 155 229.0 127.0Q258 99 309 99Q356 99 385.0 122.5Q414 146 417 189H540Q537 97 474.5 43.5Q412 -10 309 -10Z"/>
  <path transform="translate(20400,0)" d="M77 0V730H202V550L199 448Q209 500 248.0 530.0Q287 560 347 560Q428 560 476.5 506.0Q525 452 525 361V0H400V346Q400 397 373.5 424.5Q347 452 302 452Q255 452 228.5 424.0Q202 396 202 344V0Z"/>
  </g>
  <g fill="#7A857C" transform="translate(40,406) scale(0.015,-0.015)">
  <path transform="translate(0,0)" d="M309 -10Q238 -10 185.5 16.5Q133 43 104.0 91.5Q75 140 75 206V344Q75 410 104.0 458.5Q133 507 185.5 533.5Q238 560 309 560Q412 560 474.5 506.5Q537 453 540 361H417Q414 404 384.5 427.5Q355 451 309 451Q258 451 229.0 423.5Q200 396 200 345V206Q200 155 229.0 127.0Q258 99 309 99Q356 99 385.0 122.5Q414 146 417 189H540Q537 97 474.5 43.5Q412 -10 309 -10Z"/>
  <path transform="translate(600,0)" d="M389 0Q307 0 257.5 49.0Q208 98 208 178V617H27V730H333V181Q333 150 350.5 131.5Q368 113 398 113H559V0Z"/>
  <path transform="translate(1200,0)" d="M301 -10Q231 -10 179.0 17.0Q127 44 98.5 93.5Q70 143 70 210V340Q70 407 98.5 456.5Q127 506 179.0 533.0Q231 560 301 560Q370 560 421.5 533.0Q473 506 501.5 457.5Q530 409 530 344V244H190V206Q190 150 219.0 121.5Q248 93 301 93Q340 93 367.5 106.5Q395 120 400 146H524Q511 75 450.0 32.5Q389 -10 301 -10ZM190 344V325L410 326V345Q410 402 382.0 433.0Q354 464 301 464Q246 464 218.0 432.5Q190 401 190 344Z"/>
  <path transform="translate(1800,0)" d="M239 -10Q155 -10 106.5 37.5Q58 85 58 162Q58 242 113.0 289.5Q168 337 264 337H398V376Q398 459 301 459Q257 459 231.0 442.0Q205 425 202 394H82Q86 468 144.5 514.0Q203 560 302 560Q407 560 465.0 511.0Q523 462 523 373V0H401V103Q394 50 351.0 20.0Q308 -10 239 -10ZM279 92Q334 92 366.0 119.0Q398 146 398 191V256H270Q229 256 205.0 233.0Q181 210 181 174Q181 137 206.5 114.5Q232 92 279 92Z"/>
  <path transform="translate(2400,0)" d="M97 0V550H219V443Q229 497 268.5 528.5Q308 560 371 560Q455 560 502.0 506.0Q549 452 549 355V303H424V349Q424 399 398.0 425.5Q372 452 324 452Q274 452 248.0 422.0Q222 392 222 337V0Z"/>
  <path transform="translate(3600,0)" d="M277 -9Q179 -9 122.0 35.5Q65 80 65 156H188Q188 124 211.5 107.0Q235 90 277 90H321Q366 90 390.5 107.0Q415 124 415 156Q415 186 398.0 200.5Q381 215 346 220L209 238Q143 247 107.5 289.0Q72 331 72 398Q72 476 124.0 517.5Q176 559 274 559H320Q412 559 468.0 517.0Q524 475 526 405H402Q401 431 379.0 446.5Q357 462 320 462H274Q234 462 213.0 445.5Q192 429 192 401Q192 376 207.5 364.0Q223 352 253 349L382 331Q458 322 496.5 277.5Q535 233 535 158Q535 78 480.5 34.5Q426 -9 321 -9Z"/>
  <path transform="translate(4200,0)" d="M77 -180V550H199V449Q214 501 253.0 530.5Q292 560 350 560Q403 560 443.5 534.0Q484 508 506.5 460.5Q529 413 529 350V201Q529 106 480.0 48.0Q431 -10 350 -10Q292 -10 252.5 20.0Q213 50 198 104L202 -26V-180ZM303 98Q351 98 377.5 124.0Q404 150 404 204V346Q404 400 377.5 426.0Q351 452 303 452Q255 452 228.5 423.0Q202 394 202 341V209Q202 156 228.5 127.0Q255 98 303 98Z"/>
  <path transform="translate(4800,0)" d="M239 -10Q155 -10 106.5 37.5Q58 85 58 162Q58 242 113.0 289.5Q168 337 264 337H398V376Q398 459 301 459Q257 459 231.0 442.0Q205 425 202 394H82Q86 468 144.5 514.0Q203 560 302 560Q407 560 465.0 511.0Q523 462 523 373V0H401V103Q394 50 351.0 20.0Q308 -10 239 -10ZM279 92Q334 92 366.0 119.0Q398 146 398 191V256H270Q229 256 205.0 233.0Q181 210 181 174Q181 137 206.5 114.5Q232 92 279 92Z"/>
  <path transform="translate(5400,0)" d="M309 -10Q238 -10 185.5 16.5Q133 43 104.0 91.5Q75 140 75 206V344Q75 410 104.0 458.5Q133 507 185.5 533.5Q238 560 309 560Q412 560 474.5 506.5Q537 453 540 361H417Q414 404 384.5 427.5Q355 451 309 451Q258 451 229.0 423.5Q200 396 200 345V206Q200 155 229.0 127.0Q258 99 309 99Q356 99 385.0 122.5Q414 146 417 189H540Q537 97 474.5 43.5Q412 -10 309 -10Z"/>
  <path transform="translate(6000,0)" d="M301 -10Q231 -10 179.0 17.0Q127 44 98.5 93.5Q70 143 70 210V340Q70 407 98.5 456.5Q127 506 179.0 533.0Q231 560 301 560Q370 560 421.5 533.0Q473 506 501.5 457.5Q530 409 530 344V244H190V206Q190 150 219.0 121.5Q248 93 301 93Q340 93 367.5 106.5Q395 120 400 146H524Q511 75 450.0 32.5Q389 -10 301 -10ZM190 344V325L410 326V345Q410 402 382.0 433.0Q354 464 301 464Q246 464 218.0 432.5Q190 401 190 344Z"/>
  <path transform="translate(7200,0)" d="M82 395V510H518V395ZM82 150V265H518V150Z"/>
  <path transform="translate(8400,0)" d="M74 0V113L337 382Q401 449 401 518Q401 567 372.5 597.5Q344 628 296 628Q247 628 217.5 596.5Q188 565 188 513H63Q63 581 93.0 632.0Q123 683 176.0 711.5Q229 740 299 740Q368 740 420.0 713.0Q472 686 500.5 637.5Q529 589 529 524Q529 468 502.5 412.0Q476 356 415 296L231 113H538V0Z"/>
  <path transform="translate(9600,0)" d="M309 -10Q238 -10 185.5 16.5Q133 43 104.0 91.5Q75 140 75 206V344Q75 410 104.0 458.5Q133 507 185.5 533.5Q238 560 309 560Q412 560 474.5 506.5Q537 453 540 361H417Q414 404 384.5 427.5Q355 451 309 451Q258 451 229.0 423.5Q200 396 200 345V206Q200 155 229.0 127.0Q258 99 309 99Q356 99 385.0 122.5Q414 146 417 189H540Q537 97 474.5 43.5Q412 -10 309 -10Z"/>
  <path transform="translate(10200,0)" d="M301 -10Q231 -10 179.0 17.0Q127 44 98.5 93.5Q70 143 70 210V340Q70 407 98.5 456.5Q127 506 179.0 533.0Q231 560 301 560Q370 560 421.5 533.0Q473 506 501.5 457.5Q530 409 530 344V244H190V206Q190 150 219.0 121.5Q248 93 301 93Q340 93 367.5 106.5Q395 120 400 146H524Q511 75 450.0 32.5Q389 -10 301 -10ZM190 344V325L410 326V345Q410 402 382.0 433.0Q354 464 301 464Q246 464 218.0 432.5Q190 401 190 344Z"/>
  <path transform="translate(10800,0)" d="M389 0Q307 0 257.5 49.0Q208 98 208 178V617H27V730H333V181Q333 150 350.5 131.5Q368 113 398 113H559V0Z"/>
  <path transform="translate(11400,0)" d="M389 0Q307 0 257.5 49.0Q208 98 208 178V617H27V730H333V181Q333 150 350.5 131.5Q368 113 398 113H559V0Z"/>
  <path transform="translate(12000,0)" d="M277 -9Q179 -9 122.0 35.5Q65 80 65 156H188Q188 124 211.5 107.0Q235 90 277 90H321Q366 90 390.5 107.0Q415 124 415 156Q415 186 398.0 200.5Q381 215 346 220L209 238Q143 247 107.5 289.0Q72 331 72 398Q72 476 124.0 517.5Q176 559 274 559H320Q412 559 468.0 517.0Q524 475 526 405H402Q401 431 379.0 446.5Q357 462 320 462H274Q234 462 213.0 445.5Q192 429 192 401Q192 376 207.5 364.0Q223 352 253 349L382 331Q458 322 496.5 277.5Q535 233 535 158Q535 78 480.5 34.5Q426 -9 321 -9Z"/>
  </g>
</svg>
