<svg xmlns="http://www.w3.org/2000/svg" viewBox="0 0 1280 360" width="1280" height="360" role="img" aria-label="reaper">
  <rect width="1280" height="360" fill="#0C0F0D"/>
  <rect x="26" y="26" width="1228" height="308" rx="10" fill="none" stroke="#7A857C" stroke-opacity="0.45" stroke-width="2"/>
  <rect x="68" y="14" width="167" height="24" fill="#0C0F0D"/>
  <g fill="#7A857C" transform="translate(80,32) scale(0.017,-0.017)">
  <path transform="translate(0,0)" d="M77 -180V550H199V449Q214 501 253.0 530.5Q292 560 350 560Q403 560 443.5 534.0Q484 508 506.5 460.5Q529 413 529 350V201Q529 106 480.0 48.0Q431 -10 350 -10Q292 -10 252.5 20.0Q213 50 198 104L202 -26V-180ZM303 98Q351 98 377.5 124.0Q404 150 404 204V346Q404 400 377.5 426.0Q351 452 303 452Q255 452 228.5 423.0Q202 394 202 341V209Q202 156 228.5 127.0Q255 98 303 98Z"/>
  <path transform="translate(600,0)" d="M97 0V550H219V443Q229 497 268.5 528.5Q308 560 371 560Q455 560 502.0 506.0Q549 452 549 355V303H424V349Q424 399 398.0 425.5Q372 452 324 452Q274 452 248.0 422.0Q222 392 222 337V0Z"/>
  <path transform="translate(1200,0)" d="M300 -9Q194 -9 132.0 50.5Q70 110 70 211V339Q70 441 132.0 500.0Q194 559 300 559Q406 559 468.0 500.0Q530 441 530 339V211Q530 110 468.0 50.5Q406 -9 300 -9ZM300 100Q350 100 377.5 127.5Q405 155 405 207V343Q405 395 377.5 422.5Q350 450 300 450Q250 450 222.5 422.5Q195 395 195 343V207Q195 155 222.5 127.5Q250 100 300 100Z"/>
  <path transform="translate(1800,0)" d="M309 -10Q238 -10 185.5 16.5Q133 43 104.0 91.5Q75 140 75 206V344Q75 410 104.0 458.5Q133 507 185.5 533.5Q238 560 309 560Q412 560 474.5 506.5Q537 453 540 361H417Q414 404 384.5 427.5Q355 451 309 451Q258 451 229.0 423.5Q200 396 200 345V206Q200 155 229.0 127.0Q258 99 309 99Q356 99 385.0 122.5Q414 146 417 189H540Q537 97 474.5 43.5Q412 -10 309 -10Z"/>
  <path transform="translate(2400,0)" d="M301 -10Q231 -10 179.0 17.0Q127 44 98.5 93.5Q70 143 70 210V340Q70 407 98.5 456.5Q127 506 179.0 533.0Q231 560 301 560Q370 560 421.5 533.0Q473 506 501.5 457.5Q530 409 530 344V244H190V206Q190 150 219.0 121.5Q248 93 301 93Q340 93 367.5 106.5Q395 120 400 146H524Q511 75 450.0 32.5Q389 -10 301 -10ZM190 344V325L410 326V345Q410 402 382.0 433.0Q354 464 301 464Q246 464 218.0 432.5Q190 401 190 344Z"/>
  <path transform="translate(3000,0)" d="M277 -9Q179 -9 122.0 35.5Q65 80 65 156H188Q188 124 211.5 107.0Q235 90 277 90H321Q366 90 390.5 107.0Q415 124 415 156Q415 186 398.0 200.5Q381 215 346 220L209 238Q143 247 107.5 289.0Q72 331 72 398Q72 476 124.0 517.5Q176 559 274 559H320Q412 559 468.0 517.0Q524 475 526 405H402Q401 431 379.0 446.5Q357 462 320 462H274Q234 462 213.0 445.5Q192 429 192 401Q192 376 207.5 364.0Q223 352 253 349L382 331Q458 322 496.5 277.5Q535 233 535 158Q535 78 480.5 34.5Q426 -9 321 -9Z"/>
  <path transform="translate(3600,0)" d="M277 -9Q179 -9 122.0 35.5Q65 80 65 156H188Q188 124 211.5 107.0Q235 90 277 90H321Q366 90 390.5 107.0Q415 124 415 156Q415 186 398.0 200.5Q381 215 346 220L209 238Q143 247 107.5 289.0Q72 331 72 398Q72 476 124.0 517.5Q176 559 274 559H320Q412 559 468.0 517.0Q524 475 526 405H402Q401 431 379.0 446.5Q357 462 320 462H274Q234 462 213.0 445.5Q192 429 192 401Q192 376 207.5 364.0Q223 352 253 349L382 331Q458 322 496.5 277.5Q535 233 535 158Q535 78 480.5 34.5Q426 -9 321 -9Z"/>
  <path transform="translate(4800,0)" d="M97 0V550H219V443Q229 497 268.5 528.5Q308 560 371 560Q455 560 502.0 506.0Q549 452 549 355V303H424V349Q424 399 398.0 425.5Q372 452 324 452Q274 452 248.0 422.0Q222 392 222 337V0Z"/>
  <path transform="translate(5400,0)" d="M301 -10Q231 -10 179.0 17.0Q127 44 98.5 93.5Q70 143 70 210V340Q70 407 98.5 456.5Q127 506 179.0 533.0Q231 560 301 560Q370 560 421.5 533.0Q473 506 501.5 457.5Q530 409 530 344V244H190V206Q190 150 219.0 121.5Q248 93 301 93Q340 93 367.5 106.5Q395 120 400 146H524Q511 75 450.0 32.5Q389 -10 301 -10ZM190 344V325L410 326V345Q410 402 382.0 433.0Q354 464 301 464Q246 464 218.0 432.5Q190 401 190 344Z"/>
  <path transform="translate(6000,0)" d="M239 -10Q155 -10 106.5 37.5Q58 85 58 162Q58 242 113.0 289.5Q168 337 264 337H398V376Q398 459 301 459Q257 459 231.0 442.0Q205 425 202 394H82Q86 468 144.5 514.0Q203 560 302 560Q407 560 465.0 511.0Q523 462 523 373V0H401V103Q394 50 351.0 20.0Q308 -10 239 -10ZM279 92Q334 92 366.0 119.0Q398 146 398 191V256H270Q229 256 205.0 233.0Q181 210 181 174Q181 137 206.5 114.5Q232 92 279 92Z"/>
  <path transform="translate(6600,0)" d="M77 -180V550H199V449Q214 501 253.0 530.5Q292 560 350 560Q403 560 443.5 534.0Q484 508 506.5 460.5Q529 413 529 350V201Q529 106 480.0 48.0Q431 -10 350 -10Q292 -10 252.5 20.0Q213 50 198 104L202 -26V-180ZM303 98Q351 98 377.5 124.0Q404 150 404 204V346Q404 400 377.5 426.0Q351 452 303 452Q255 452 228.5 423.0Q202 394 202 341V209Q202 156 228.5 127.0Q255 98 303 98Z"/>
  <path transform="translate(7200,0)" d="M301 -10Q231 -10 179.0 17.0Q127 44 98.5 93.5Q70 143 70 210V340Q70 407 98.5 456.5Q127 506 179.0 533.0Q231 560 301 560Q370 560 421.5 533.0Q473 506 501.5 457.5Q530 409 530 344V244H190V206Q190 150 219.0 121.5Q248 93 301 93Q340 93 367.5 106.5Q395 120 400 146H524Q511 75 450.0 32.5Q389 -10 301 -10ZM190 344V325L410 326V345Q410 402 382.0 433.0Q354 464 301 464Q246 464 218.0 432.5Q190 401 190 344Z"/>
  <path transform="translate(7800,0)" d="M97 0V550H219V443Q229 497 268.5 528.5Q308 560 371 560Q455 560 502.0 506.0Q549 452 549 355V303H424V349Q424 399 398.0 425.5Q372 452 324 452Q274 452 248.0 422.0Q222 392 222 337V0Z"/>
  </g>
  <rect x="141" y="93.94" width="13.12" height="13.12" rx="1.05" fill="#EAE4D6"/>
  <rect x="156" y="93.94" width="13.12" height="13.12" rx="1.05" fill="#EAE4D6"/>
  <rect x="171" y="93.94" width="13.12" height="13.12" rx="1.05" fill="#EAE4D6"/>
  <rect x="186" y="93.94" width="13.12" height="13.12" rx="1.05" fill="#EAE4D6"/>
  <rect x="201" y="93.94" width="13.12" height="13.12" rx="1.05" fill="#EAE4D6"/>
  <rect x="126" y="108.94" width="13.12" height="13.12" rx="1.05" fill="#EAE4D6"/>
  <rect x="141" y="108.94" width="13.12" height="13.12" rx="1.05" fill="#EAE4D6"/>
  <rect x="156" y="108.94" width="13.12" height="13.12" rx="1.05" fill="#EAE4D6"/>
  <rect x="171" y="108.94" width="13.12" height="13.12" rx="1.05" fill="#EAE4D6"/>
  <rect x="186" y="108.94" width="13.12" height="13.12" rx="1.05" fill="#EAE4D6"/>
  <rect x="201" y="108.94" width="13.12" height="13.12" rx="1.05" fill="#EAE4D6"/>
  <rect x="216" y="108.94" width="13.12" height="13.12" rx="1.05" fill="#EAE4D6"/>
  <rect x="111" y="123.94" width="13.12" height="13.12" rx="1.05" fill="#EAE4D6"/>
  <rect x="126" y="123.94" width="13.12" height="13.12" rx="1.05" fill="#EAE4D6"/>
  <rect x="141" y="123.94" width="13.12" height="13.12" rx="1.05" fill="#EAE4D6"/>
  <rect x="156" y="123.94" width="13.12" height="13.12" rx="1.05" fill="#EAE4D6"/>
  <rect x="171" y="123.94" width="13.12" height="13.12" rx="1.05" fill="#EAE4D6"/>
  <rect x="186" y="123.94" width="13.12" height="13.12" rx="1.05" fill="#EAE4D6"/>
  <rect x="201" y="123.94" width="13.12" height="13.12" rx="1.05" fill="#EAE4D6"/>
  <rect x="216" y="123.94" width="13.12" height="13.12" rx="1.05" fill="#EAE4D6"/>
  <rect x="231" y="123.94" width="13.12" height="13.12" rx="1.05" fill="#EAE4D6"/>
  <rect x="111" y="138.94" width="13.12" height="13.12" rx="1.05" fill="#EAE4D6"/>
  <rect x="126" y="138.94" width="13.12" height="13.12" rx="1.05" fill="#EAE4D6"/>
  <rect x="141" y="138.94" width="13.12" height="13.12" rx="1.05" fill="#EAE4D6"/>
  <rect x="156" y="138.94" width="13.12" height="13.12" rx="1.05" fill="#EAE4D6"/>
  <rect x="171" y="138.94" width="13.12" height="13.12" rx="1.05" fill="#EAE4D6"/>
  <rect x="186" y="138.94" width="13.12" height="13.12" rx="1.05" fill="#EAE4D6"/>
  <rect x="201" y="138.94" width="13.12" height="13.12" rx="1.05" fill="#EAE4D6"/>
  <rect x="216" y="138.94" width="13.12" height="13.12" rx="1.05" fill="#EAE4D6"/>
  <rect x="231" y="138.94" width="13.12" height="13.12" rx="1.05" fill="#EAE4D6"/>
  <rect x="111" y="153.94" width="13.12" height="13.12" rx="1.05" fill="#EAE4D6"/>
  <rect x="156" y="153.94" width="13.12" height="13.12" rx="1.05" fill="#EAE4D6"/>
  <rect x="171" y="153.94" width="13.12" height="13.12" rx="1.05" fill="#EAE4D6"/>
  <rect x="186" y="153.94" width="13.12" height="13.12" rx="1.05" fill="#EAE4D6"/>
  <rect x="231" y="153.94" width="13.12" height="13.12" rx="1.05" fill="#EAE4D6"/>
  <rect x="111" y="168.94" width="13.12" height="13.12" rx="1.05" fill="#EAE4D6"/>
  <rect x="156" y="168.94" width="13.12" height="13.12" rx="1.05" fill="#EAE4D6"/>
  <rect x="171" y="168.94" width="13.12" height="13.12" rx="1.05" fill="#EAE4D6"/>
  <rect x="186" y="168.94" width="13.12" height="13.12" rx="1.05" fill="#EAE4D6"/>
  <rect x="231" y="168.94" width="13.12" height="13.12" rx="1.05" fill="#EAE4D6"/>
  <rect x="111" y="183.94" width="13.12" height="13.12" rx="1.05" fill="#EAE4D6"/>
  <rect x="126" y="183.94" width="13.12" height="13.12" rx="1.05" fill="#EAE4D6"/>
  <rect x="141" y="183.94" width="13.12" height="13.12" rx="1.05" fill="#EAE4D6"/>
  <rect x="156" y="183.94" width="13.12" height="13.12" rx="1.05" fill="#EAE4D6"/>
  <rect x="186" y="183.94" width="13.12" height="13.12" rx="1.05" fill="#EAE4D6"/>
  <rect x="201" y="183.94" width="13.12" height="13.12" rx="1.05" fill="#EAE4D6"/>
  <rect x="216" y="183.94" width="13.12" height="13.12" rx="1.05" fill="#EAE4D6"/>
  <rect x="231" y="183.94" width="13.12" height="13.12" rx="1.05" fill="#EAE4D6"/>
  <rect x="126" y="198.94" width="13.12" height="13.12" rx="1.05" fill="#EAE4D6"/>
  <rect x="141" y="198.94" width="13.12" height="13.12" rx="1.05" fill="#EAE4D6"/>
  <rect x="156" y="198.94" width="13.12" height="13.12" rx="1.05" fill="#EAE4D6"/>
  <rect x="186" y="198.94" width="13.12" height="13.12" rx="1.05" fill="#EAE4D6"/>
  <rect x="201" y="198.94" width="13.12" height="13.12" rx="1.05" fill="#EAE4D6"/>
  <rect x="216" y="198.94" width="13.12" height="13.12" rx="1.05" fill="#EAE4D6"/>
  <rect x="126" y="213.94" width="13.12" height="13.12" rx="1.05" fill="#EAE4D6"/>
  <rect x="141" y="213.94" width="13.12" height="13.12" rx="1.05" fill="#EAE4D6"/>
  <rect x="156" y="213.94" width="13.12" height="13.12" rx="1.05" fill="#EAE4D6"/>
  <rect x="171" y="213.94" width="13.12" height="13.12" rx="1.05" fill="#EAE4D6"/>
  <rect x="186" y="213.94" width="13.12" height="13.12" rx="1.05" fill="#EAE4D6"/>
  <rect x="201" y="213.94" width="13.12" height="13.12" rx="1.05" fill="#EAE4D6"/>
  <rect x="216" y="213.94" width="13.12" height="13.12" rx="1.05" fill="#EAE4D6"/>
  <rect x="141" y="228.94" width="13.12" height="13.12" rx="1.05" fill="#EAE4D6"/>
  <rect x="171" y="228.94" width="13.12" height="13.12" rx="1.05" fill="#EAE4D6"/>
  <rect x="201" y="228.94" width="13.12" height="13.12" rx="1.05" fill="#EAE4D6"/>
  <rect x="201" y="153.94" width="13.12" height="13.12" rx="1.05" fill="#3FDD78"/>
  <rect x="216" y="153.94" width="13.12" height="13.12" rx="1.05" fill="#3FDD78"/>
  <rect x="201" y="168.94" width="13.12" height="13.12" rx="1.05" fill="#3FDD78"/>
  <rect x="216" y="168.94" width="13.12" height="13.12" rx="1.05" fill="#3FDD78"/>
  <g fill="#EAE4D6" transform="translate(315.125,185.775) scale(0.096,-0.096)">
  <path transform="translate(0,0)" d="M97 0V550H219V443Q229 497 268.5 528.5Q308 560 371 560Q455 560 502.0 506.0Q549 452 549 355V303H424V349Q424 399 398.0 425.5Q372 452 324 452Q274 452 248.0 422.0Q222 392 222 337V0Z"/>
  <path transform="translate(600,0)" d="M301 -10Q231 -10 179.0 17.0Q127 44 98.5 93.5Q70 143 70 210V340Q70 407 98.5 456.5Q127 506 179.0 533.0Q231 560 301 560Q370 560 421.5 533.0Q473 506 501.5 457.5Q530 409 530 344V244H190V206Q190 150 219.0 121.5Q248 93 301 93Q340 93 367.5 106.5Q395 120 400 146H524Q511 75 450.0 32.5Q389 -10 301 -10ZM190 344V325L410 326V345Q410 402 382.0 433.0Q354 464 301 464Q246 464 218.0 432.5Q190 401 190 344Z"/>
  <path transform="translate(1200,0)" d="M239 -10Q155 -10 106.5 37.5Q58 85 58 162Q58 242 113.0 289.5Q168 337 264 337H398V376Q398 459 301 459Q257 459 231.0 442.0Q205 425 202 394H82Q86 468 144.5 514.0Q203 560 302 560Q407 560 465.0 511.0Q523 462 523 373V0H401V103Q394 50 351.0 20.0Q308 -10 239 -10ZM279 92Q334 92 366.0 119.0Q398 146 398 191V256H270Q229 256 205.0 233.0Q181 210 181 174Q181 137 206.5 114.5Q232 92 279 92Z"/>
  <path transform="translate(1800,0)" d="M77 -180V550H199V449Q214 501 253.0 530.5Q292 560 350 560Q403 560 443.5 534.0Q484 508 506.5 460.5Q529 413 529 350V201Q529 106 480.0 48.0Q431 -10 350 -10Q292 -10 252.5 20.0Q213 50 198 104L202 -26V-180ZM303 98Q351 98 377.5 124.0Q404 150 404 204V346Q404 400 377.5 426.0Q351 452 303 452Q255 452 228.5 423.0Q202 394 202 341V209Q202 156 228.5 127.0Q255 98 303 98Z"/>
  <path transform="translate(2400,0)" d="M301 -10Q231 -10 179.0 17.0Q127 44 98.5 93.5Q70 143 70 210V340Q70 407 98.5 456.5Q127 506 179.0 533.0Q231 560 301 560Q370 560 421.5 533.0Q473 506 501.5 457.5Q530 409 530 344V244H190V206Q190 150 219.0 121.5Q248 93 301 93Q340 93 367.5 106.5Q395 120 400 146H524Q511 75 450.0 32.5Q389 -10 301 -10ZM190 344V325L410 326V345Q410 402 382.0 433.0Q354 464 301 464Q246 464 218.0 432.5Q190 401 190 344Z"/>
  <path transform="translate(3000,0)" d="M97 0V550H219V443Q229 497 268.5 528.5Q308 560 371 560Q455 560 502.0 506.0Q549 452 549 355V303H424V349Q424 399 398.0 425.5Q372 452 324 452Q274 452 248.0 422.0Q222 392 222 337V0Z"/>
  </g>
  <g fill="#7A857C" transform="translate(319.125,231.775) scale(0.022,-0.022)">
  <path transform="translate(0,0)" d="M239 -10Q155 -10 106.5 37.5Q58 85 58 162Q58 242 113.0 289.5Q168 337 264 337H398V376Q398 459 301 459Q257 459 231.0 442.0Q205 425 202 394H82Q86 468 144.5 514.0Q203 560 302 560Q407 560 465.0 511.0Q523 462 523 373V0H401V103Q394 50 351.0 20.0Q308 -10 239 -10ZM279 92Q334 92 366.0 119.0Q398 146 398 191V256H270Q229 256 205.0 233.0Q181 210 181 174Q181 137 206.5 114.5Q232 92 279 92Z"/>
  <path transform="translate(1200,0)" d="M389 0Q307 0 257.5 49.0Q208 98 208 178V617H27V730H333V181Q333 150 350.5 131.5Q368 113 398 113H559V0Z"/>
  <path transform="translate(1800,0)" d="M76 0V113H264V437H96V550H389V113H558V0ZM318 642Q280 642 258.0 661.5Q236 681 236 714Q236 747 258.0 766.5Q280 786 318 786Q356 786 378.0 766.5Q400 747 400 714Q400 681 378.0 661.5Q356 642 318 642Z"/>
  <path transform="translate(2400,0)" d="M77 0V550H199V447Q209 499 248.0 529.5Q287 560 347 560Q428 560 476.5 506.0Q525 452 525 361V0H400V346Q400 397 373.5 424.5Q347 452 302 452Q255 452 228.5 424.0Q202 396 202 344V0Z"/>
  <path transform="translate(3000,0)" d="M300 -10Q195 -10 135.0 48.5Q75 107 75 208V550H200V209Q200 157 226.0 128.0Q252 99 300 99Q347 99 373.5 128.0Q400 157 400 209V550H525V208Q525 107 464.0 48.5Q403 -10 300 -10Z"/>
  <path transform="translate(3600,0)" d="M36 0 228 284 49 550H190L275 415Q283 403 290.0 388.0Q297 373 300 364Q304 373 310.5 388.0Q317 403 325 415L410 550H552L373 284L564 0H422L327 151Q319 163 311.5 178.5Q304 194 300 203Q296 194 289.0 178.5Q282 163 274 151L178 0Z"/>
  <path transform="translate(4800,0)" d="M355 0Q278 0 232.5 44.5Q187 89 187 165V437H35V550H187V705H313V550H532V437H313V168Q313 144 326.5 128.5Q340 113 364 113H527V0Z"/>
  <path transform="translate(5400,0)" d="M300 -10Q195 -10 135.0 48.5Q75 107 75 208V550H200V209Q200 157 226.0 128.0Q252 99 300 99Q347 99 373.5 128.0Q400 157 400 209V550H525V208Q525 107 464.0 48.5Q403 -10 300 -10Z"/>
  <path transform="translate(6000,0)" d="M76 0V113H264V437H96V550H389V113H558V0ZM318 642Q280 642 258.0 661.5Q236 681 236 714Q236 747 258.0 766.5Q280 786 318 786Q356 786 378.0 766.5Q400 747 400 714Q400 681 378.0 661.5Q356 642 318 642Z"/>
  <path transform="translate(7200,0)" d="M200 0V362H49V475H200V572Q200 644 248.0 687.0Q296 730 375 730H536V620H378Q354 620 339.5 606.5Q325 593 325 570V475H536V362H325V0Z"/>
  <path transform="translate(7800,0)" d="M300 -9Q194 -9 132.0 50.5Q70 110 70 211V339Q70 441 132.0 500.0Q194 559 300 559Q406 559 468.0 500.0Q530 441 530 339V211Q530 110 468.0 50.5Q406 -9 300 -9ZM300 100Q350 100 377.5 127.5Q405 155 405 207V343Q405 395 377.5 422.5Q350 450 300 450Q250 450 222.5 422.5Q195 395 195 343V207Q195 155 222.5 127.5Q250 100 300 100Z"/>
  <path transform="translate(8400,0)" d="M97 0V550H219V443Q229 497 268.5 528.5Q308 560 371 560Q455 560 502.0 506.0Q549 452 549 355V303H424V349Q424 399 398.0 425.5Q372 452 324 452Q274 452 248.0 422.0Q222 392 222 337V0Z"/>
  <path transform="translate(9600,0)" d="M389 0Q307 0 257.5 49.0Q208 98 208 178V617H27V730H333V181Q333 150 350.5 131.5Q368 113 398 113H559V0Z"/>
  <path transform="translate(10200,0)" d="M76 0V113H264V437H96V550H389V113H558V0ZM318 642Q280 642 258.0 661.5Q236 681 236 714Q236 747 258.0 766.5Q280 786 318 786Q356 786 378.0 766.5Q400 747 400 714Q400 681 378.0 661.5Q356 642 318 642Z"/>
  <path transform="translate(10800,0)" d="M277 -9Q179 -9 122.0 35.5Q65 80 65 156H188Q188 124 211.5 107.0Q235 90 277 90H321Q366 90 390.5 107.0Q415 124 415 156Q415 186 398.0 200.5Q381 215 346 220L209 238Q143 247 107.5 289.0Q72 331 72 398Q72 476 124.0 517.5Q176 559 274 559H320Q412 559 468.0 517.0Q524 475 526 405H402Q401 431 379.0 446.5Q357 462 320 462H274Q234 462 213.0 445.5Q192 429 192 401Q192 376 207.5 364.0Q223 352 253 349L382 331Q458 322 496.5 277.5Q535 233 535 158Q535 78 480.5 34.5Q426 -9 321 -9Z"/>
  <path transform="translate(11400,0)" d="M355 0Q278 0 232.5 44.5Q187 89 187 165V437H35V550H187V705H313V550H532V437H313V168Q313 144 326.5 128.5Q340 113 364 113H527V0Z"/>
  <path transform="translate(12000,0)" d="M76 0V113H264V437H96V550H389V113H558V0ZM318 642Q280 642 258.0 661.5Q236 681 236 714Q236 747 258.0 766.5Q280 786 318 786Q356 786 378.0 766.5Q400 747 400 714Q400 681 378.0 661.5Q356 642 318 642Z"/>
  <path transform="translate(12600,0)" d="M77 0V550H199V447Q209 499 248.0 529.5Q287 560 347 560Q428 560 476.5 506.0Q525 452 525 361V0H400V346Q400 397 373.5 424.5Q347 452 302 452Q255 452 228.5 424.0Q202 396 202 344V0Z"/>
  <path transform="translate(13200,0)" d="M152 -180V-76H307Q351 -76 375.0 -52.5Q399 -29 399 11V44L401 130Q384 84 346.5 58.5Q309 33 255 33Q171 33 121.5 89.5Q72 146 72 243V350Q72 446 121.5 503.0Q171 560 255 560Q309 560 346.5 534.5Q384 509 401 462V550H523V8Q523 -79 465.5 -129.5Q408 -180 309 -180ZM297 140Q345 140 371.5 168.5Q398 197 398 248V344Q398 395 371.5 423.5Q345 452 297 452Q249 452 223.0 424.5Q197 397 197 348V244Q197 195 223.0 167.5Q249 140 297 140Z"/>
  <path transform="translate(14400,0)" d="M223 -10Q128 -10 72.5 42.5Q17 95 17 183V249Q17 326 57.0 374.0Q97 422 165 430L143 460Q121 490 109.5 519.5Q98 549 98 576Q98 624 121.5 661.0Q145 698 186.5 719.0Q228 740 282 740Q340 740 383.5 715.5Q427 691 451.5 646.5Q476 602 476 544H361Q361 587 339.0 613.0Q317 639 282 639Q252 639 233.0 620.0Q214 601 214 571Q214 557 220.0 541.0Q226 525 236 512L420 269L496 365H624L482 185L621 0H490L415 100L396 76Q367 36 321.0 13.0Q275 -10 223 -10ZM227 94Q257 94 280.5 108.0Q304 122 323 148L351 183L234 338H220Q181 338 158.5 314.0Q136 290 136 249V183Q136 142 160.5 118.0Q185 94 227 94Z"/>
  <path transform="translate(15600,0)" d="M82 0V730H207V334H295L426 550H565L402 284L571 0H429L295 228H207V0Z"/>
  <path transform="translate(16200,0)" d="M76 0V113H264V437H96V550H389V113H558V0ZM318 642Q280 642 258.0 661.5Q236 681 236 714Q236 747 258.0 766.5Q280 786 318 786Q356 786 378.0 766.5Q400 747 400 714Q400 681 378.0 661.5Q356 642 318 642Z"/>
  <path transform="translate(16800,0)" d="M389 0Q307 0 257.5 49.0Q208 98 208 178V617H27V730H333V181Q333 150 350.5 131.5Q368 113 398 113H559V0Z"/>
  <path transform="translate(17400,0)" d="M389 0Q307 0 257.5 49.0Q208 98 208 178V617H27V730H333V181Q333 150 350.5 131.5Q368 113 398 113H559V0Z"/>
  <path transform="translate(18000,0)" d="M76 0V113H264V437H96V550H389V113H558V0ZM318 642Q280 642 258.0 661.5Q236 681 236 714Q236 747 258.0 766.5Q280 786 318 786Q356 786 378.0 766.5Q400 747 400 714Q400 681 378.0 661.5Q356 642 318 642Z"/>
  <path transform="translate(18600,0)" d="M77 0V550H199V447Q209 499 248.0 529.5Q287 560 347 560Q428 560 476.5 506.0Q525 452 525 361V0H400V346Q400 397 373.5 424.5Q347 452 302 452Q255 452 228.5 424.0Q202 396 202 344V0Z"/>
  <path transform="translate(19200,0)" d="M152 -180V-76H307Q351 -76 375.0 -52.5Q399 -29 399 11V44L401 130Q384 84 346.5 58.5Q309 33 255 33Q171 33 121.5 89.5Q72 146 72 243V350Q72 446 121.5 503.0Q171 560 255 560Q309 560 346.5 534.5Q384 509 401 462V550H523V8Q523 -79 465.5 -129.5Q408 -180 309 -180ZM297 140Q345 140 371.5 168.5Q398 197 398 248V344Q398 395 371.5 423.5Q345 452 297 452Q249 452 223.0 424.5Q197 397 197 348V244Q197 195 223.0 167.5Q249 140 297 140Z"/>
  <path transform="translate(20400,0)" d="M389 0Q307 0 257.5 49.0Q208 98 208 178V617H27V730H333V181Q333 150 350.5 131.5Q368 113 398 113H559V0Z"/>
  <path transform="translate(21000,0)" d="M76 0V113H264V437H96V550H389V113H558V0ZM318 642Q280 642 258.0 661.5Q236 681 236 714Q236 747 258.0 766.5Q280 786 318 786Q356 786 378.0 766.5Q400 747 400 714Q400 681 378.0 661.5Q356 642 318 642Z"/>
  <path transform="translate(21600,0)" d="M277 -9Q179 -9 122.0 35.5Q65 80 65 156H188Q188 124 211.5 107.0Q235 90 277 90H321Q366 90 390.5 107.0Q415 124 415 156Q415 186 398.0 200.5Q381 215 346 220L209 238Q143 247 107.5 289.0Q72 331 72 398Q72 476 124.0 517.5Q176 559 274 559H320Q412 559 468.0 517.0Q524 475 526 405H402Q401 431 379.0 446.5Q357 462 320 462H274Q234 462 213.0 445.5Q192 429 192 401Q192 376 207.5 364.0Q223 352 253 349L382 331Q458 322 496.5 277.5Q535 233 535 158Q535 78 480.5 34.5Q426 -9 321 -9Z"/>
  <path transform="translate(22200,0)" d="M355 0Q278 0 232.5 44.5Q187 89 187 165V437H35V550H187V705H313V550H532V437H313V168Q313 144 326.5 128.5Q340 113 364 113H527V0Z"/>
  <path transform="translate(22800,0)" d="M301 -10Q231 -10 179.0 17.0Q127 44 98.5 93.5Q70 143 70 210V340Q70 407 98.5 456.5Q127 506 179.0 533.0Q231 560 301 560Q370 560 421.5 533.0Q473 506 501.5 457.5Q530 409 530 344V244H190V206Q190 150 219.0 121.5Q248 93 301 93Q340 93 367.5 106.5Q395 120 400 146H524Q511 75 450.0 32.5Q389 -10 301 -10ZM190 344V325L410 326V345Q410 402 382.0 433.0Q354 464 301 464Q246 464 218.0 432.5Q190 401 190 344Z"/>
  <path transform="translate(23400,0)" d="M77 0V550H199V447Q209 499 248.0 529.5Q287 560 347 560Q428 560 476.5 506.0Q525 452 525 361V0H400V346Q400 397 373.5 424.5Q347 452 302 452Q255 452 228.5 424.0Q202 396 202 344V0Z"/>
  <path transform="translate(24000,0)" d="M76 0V113H264V437H96V550H389V113H558V0ZM318 642Q280 642 258.0 661.5Q236 681 236 714Q236 747 258.0 766.5Q280 786 318 786Q356 786 378.0 766.5Q400 747 400 714Q400 681 378.0 661.5Q356 642 318 642Z"/>
  <path transform="translate(24600,0)" d="M77 0V550H199V447Q209 499 248.0 529.5Q287 560 347 560Q428 560 476.5 506.0Q525 452 525 361V0H400V346Q400 397 373.5 424.5Q347 452 302 452Q255 452 228.5 424.0Q202 396 202 344V0Z"/>
  <path transform="translate(25200,0)" d="M152 -180V-76H307Q351 -76 375.0 -52.5Q399 -29 399 11V44L401 130Q384 84 346.5 58.5Q309 33 255 33Q171 33 121.5 89.5Q72 146 72 243V350Q72 446 121.5 503.0Q171 560 255 560Q309 560 346.5 534.5Q384 509 401 462V550H523V8Q523 -79 465.5 -129.5Q408 -180 309 -180ZM297 140Q345 140 371.5 168.5Q398 197 398 248V344Q398 395 371.5 423.5Q345 452 297 452Q249 452 223.0 424.5Q197 397 197 348V244Q197 195 223.0 167.5Q249 140 297 140Z"/>
  <path transform="translate(26400,0)" d="M77 -180V550H199V449Q214 501 253.0 530.5Q292 560 350 560Q403 560 443.5 534.0Q484 508 506.5 460.5Q529 413 529 350V201Q529 106 480.0 48.0Q431 -10 350 -10Q292 -10 252.5 20.0Q213 50 198 104L202 -26V-180ZM303 98Q351 98 377.5 124.0Q404 150 404 204V346Q404 400 377.5 426.0Q351 452 303 452Q255 452 228.5 423.0Q202 394 202 341V209Q202 156 228.5 127.0Q255 98 303 98Z"/>
  <path transform="translate(27000,0)" d="M300 -9Q194 -9 132.0 50.5Q70 110 70 211V339Q70 441 132.0 500.0Q194 559 300 559Q406 559 468.0 500.0Q530 441 530 339V211Q530 110 468.0 50.5Q406 -9 300 -9ZM300 100Q350 100 377.5 127.5Q405 155 405 207V343Q405 395 377.5 422.5Q350 450 300 450Q250 450 222.5 422.5Q195 395 195 343V207Q195 155 222.5 127.5Q250 100 300 100Z"/>
  <path transform="translate(27600,0)" d="M97 0V550H219V443Q229 497 268.5 528.5Q308 560 371 560Q455 560 502.0 506.0Q549 452 549 355V303H424V349Q424 399 398.0 425.5Q372 452 324 452Q274 452 248.0 422.0Q222 392 222 337V0Z"/>
  <path transform="translate(28200,0)" d="M355 0Q278 0 232.5 44.5Q187 89 187 165V437H35V550H187V705H313V550H532V437H313V168Q313 144 326.5 128.5Q340 113 364 113H527V0Z"/>
  <path transform="translate(28800,0)" d="M277 -9Q179 -9 122.0 35.5Q65 80 65 156H188Q188 124 211.5 107.0Q235 90 277 90H321Q366 90 390.5 107.0Q415 124 415 156Q415 186 398.0 200.5Q381 215 346 220L209 238Q143 247 107.5 289.0Q72 331 72 398Q72 476 124.0 517.5Q176 559 274 559H320Q412 559 468.0 517.0Q524 475 526 405H402Q401 431 379.0 446.5Q357 462 320 462H274Q234 462 213.0 445.5Q192 429 192 401Q192 376 207.5 364.0Q223 352 253 349L382 331Q458 322 496.5 277.5Q535 233 535 158Q535 78 480.5 34.5Q426 -9 321 -9Z"/>
  </g>
  <rect x="970" y="214.775" width="11" height="21" fill="#3FDD78"/>
  <g fill="#3FDD78" transform="translate(96,304) scale(0.016,-0.016)">
  <path transform="translate(0,0)" d="M185 -110V830H465V715H310V5H465V-110Z"/>
  <path transform="translate(600,0)" d="M569 365 398 514Q384 527 373.5 542.0Q363 557 360 567V0H241V565Q238 555 228.5 540.5Q219 526 205 514L31 361V506L299 740L569 507Z"/>
  <path transform="translate(1200,0)" d="M569 365V223L299 -10L31 224V369L205 216Q219 204 228.5 189.5Q238 175 241 165V730H360V163Q363 173 373.5 188.0Q384 203 398 216Z"/>
  <path transform="translate(1800,0)" d="M135 -110V5H290V715H135V830H415V-110Z"/>
  </g>
  <g fill="#7A857C" transform="translate(134.4,304) scale(0.016,-0.016)">
  <path transform="translate(600,0)" d="M77 0V550H199V447Q209 499 248.0 529.5Q287 560 347 560Q428 560 476.5 506.0Q525 452 525 361V0H400V346Q400 397 373.5 424.5Q347 452 302 452Q255 452 228.5 424.0Q202 396 202 344V0Z"/>
  <path transform="translate(1200,0)" d="M239 -10Q155 -10 106.5 37.5Q58 85 58 162Q58 242 113.0 289.5Q168 337 264 337H398V376Q398 459 301 459Q257 459 231.0 442.0Q205 425 202 394H82Q86 468 144.5 514.0Q203 560 302 560Q407 560 465.0 511.0Q523 462 523 373V0H401V103Q394 50 351.0 20.0Q308 -10 239 -10ZM279 92Q334 92 366.0 119.0Q398 146 398 191V256H270Q229 256 205.0 233.0Q181 210 181 174Q181 137 206.5 114.5Q232 92 279 92Z"/>
  <path transform="translate(1800,0)" d="M221 0 36 550H167L273 216Q283 186 290.5 155.5Q298 125 301 103Q305 125 311.5 155.5Q318 186 327 215L432 550H564L380 0Z"/>
  <path transform="translate(2400,0)" d="M76 0V113H264V437H96V550H389V113H558V0ZM318 642Q280 642 258.0 661.5Q236 681 236 714Q236 747 258.0 766.5Q280 786 318 786Q356 786 378.0 766.5Q400 747 400 714Q400 681 378.0 661.5Q356 642 318 642Z"/>
  <path transform="translate(3000,0)" d="M152 -180V-76H307Q351 -76 375.0 -52.5Q399 -29 399 11V44L401 130Q384 84 346.5 58.5Q309 33 255 33Q171 33 121.5 89.5Q72 146 72 243V350Q72 446 121.5 503.0Q171 560 255 560Q309 560 346.5 534.5Q384 509 401 462V550H523V8Q523 -79 465.5 -129.5Q408 -180 309 -180ZM297 140Q345 140 371.5 168.5Q398 197 398 248V344Q398 395 371.5 423.5Q345 452 297 452Q249 452 223.0 424.5Q197 397 197 348V244Q197 195 223.0 167.5Q249 140 297 140Z"/>
  <path transform="translate(3600,0)" d="M239 -10Q155 -10 106.5 37.5Q58 85 58 162Q58 242 113.0 289.5Q168 337 264 337H398V376Q398 459 301 459Q257 459 231.0 442.0Q205 425 202 394H82Q86 468 144.5 514.0Q203 560 302 560Q407 560 465.0 511.0Q523 462 523 373V0H401V103Q394 50 351.0 20.0Q308 -10 239 -10ZM279 92Q334 92 366.0 119.0Q398 146 398 191V256H270Q229 256 205.0 233.0Q181 210 181 174Q181 137 206.5 114.5Q232 92 279 92Z"/>
  <path transform="translate(4200,0)" d="M355 0Q278 0 232.5 44.5Q187 89 187 165V437H35V550H187V705H313V550H532V437H313V168Q313 144 326.5 128.5Q340 113 364 113H527V0Z"/>
  <path transform="translate(4800,0)" d="M301 -10Q231 -10 179.0 17.0Q127 44 98.5 93.5Q70 143 70 210V340Q70 407 98.5 456.5Q127 506 179.0 533.0Q231 560 301 560Q370 560 421.5 533.0Q473 506 501.5 457.5Q530 409 530 344V244H190V206Q190 150 219.0 121.5Q248 93 301 93Q340 93 367.5 106.5Q395 120 400 146H524Q511 75 450.0 32.5Q389 -10 301 -10ZM190 344V325L410 326V345Q410 402 382.0 433.0Q354 464 301 464Q246 464 218.0 432.5Q190 401 190 344Z"/>
  </g>
  <g fill="#3FDD78" transform="translate(254.8,304) scale(0.016,-0.016)">
  <path transform="translate(0,0)" d="M185 -110V830H465V715H310V5H465V-110Z"/>
  <path transform="translate(600,0)" d="M60 -110 410 830H540L190 -110Z"/>
  <path transform="translate(1200,0)" d="M135 -110V5H290V715H135V830H415V-110Z"/>
  </g>
  <g fill="#7A857C" transform="translate(283.6,304) scale(0.016,-0.016)">
  <path transform="translate(600,0)" d="M277 -9Q179 -9 122.0 35.5Q65 80 65 156H188Q188 124 211.5 107.0Q235 90 277 90H321Q366 90 390.5 107.0Q415 124 415 156Q415 186 398.0 200.5Q381 215 346 220L209 238Q143 247 107.5 289.0Q72 331 72 398Q72 476 124.0 517.5Q176 559 274 559H320Q412 559 468.0 517.0Q524 475 526 405H402Q401 431 379.0 446.5Q357 462 320 462H274Q234 462 213.0 445.5Q192 429 192 401Q192 376 207.5 364.0Q223 352 253 349L382 331Q458 322 496.5 277.5Q535 233 535 158Q535 78 480.5 34.5Q426 -9 321 -9Z"/>
  <path transform="translate(1200,0)" d="M301 -10Q231 -10 179.0 17.0Q127 44 98.5 93.5Q70 143 70 210V340Q70 407 98.5 456.5Q127 506 179.0 533.0Q231 560 301 560Q370 560 421.5 533.0Q473 506 501.5 457.5Q530 409 530 344V244H190V206Q190 150 219.0 121.5Q248 93 301 93Q340 93 367.5 106.5Q395 120 400 146H524Q511 75 450.0 32.5Q389 -10 301 -10ZM190 344V325L410 326V345Q410 402 382.0 433.0Q354 464 301 464Q246 464 218.0 432.5Q190 401 190 344Z"/>
  <path transform="translate(1800,0)" d="M239 -10Q155 -10 106.5 37.5Q58 85 58 162Q58 242 113.0 289.5Q168 337 264 337H398V376Q398 459 301 459Q257 459 231.0 442.0Q205 425 202 394H82Q86 468 144.5 514.0Q203 560 302 560Q407 560 465.0 511.0Q523 462 523 373V0H401V103Q394 50 351.0 20.0Q308 -10 239 -10ZM279 92Q334 92 366.0 119.0Q398 146 398 191V256H270Q229 256 205.0 233.0Q181 210 181 174Q181 137 206.5 114.5Q232 92 279 92Z"/>
  <path transform="translate(2400,0)" d="M97 0V550H219V443Q229 497 268.5 528.5Q308 560 371 560Q455 560 502.0 506.0Q549 452 549 355V303H424V349Q424 399 398.0 425.5Q372 452 324 452Q274 452 248.0 422.0Q222 392 222 337V0Z"/>
  <path transform="translate(3000,0)" d="M309 -10Q238 -10 185.5 16.5Q133 43 104.0 91.5Q75 140 75 206V344Q75 410 104.0 458.5Q133 507 185.5 533.5Q238 560 309 560Q412 560 474.5 506.5Q537 453 540 361H417Q414 404 384.5 427.5Q355 451 309 451Q258 451 229.0 423.5Q200 396 200 345V206Q200 155 229.0 127.0Q258 99 309 99Q356 99 385.0 122.5Q414 146 417 189H540Q537 97 474.5 43.5Q412 -10 309 -10Z"/>
  <path transform="translate(3600,0)" d="M77 0V730H202V550L199 448Q209 500 248.0 530.0Q287 560 347 560Q428 560 476.5 506.0Q525 452 525 361V0H400V346Q400 397 373.5 424.5Q347 452 302 452Q255 452 228.5 424.0Q202 396 202 344V0Z"/>
  </g>
  <g fill="#FF5C57" transform="translate(384.8,304) scale(0.016,-0.016)">
  <path transform="translate(0,0)" d="M185 -110V830H465V715H310V5H465V-110Z"/>
  <path transform="translate(600,0)" d="M285 50 -20 335 285 620V455H361V670Q361 697 377.5 713.5Q394 730 421 730H555Q582 730 598.5 713.5Q615 697 615 670V276Q615 249 598.5 232.5Q582 216 555 216H285ZM241 152V259H568V685H408V411H241V519L44 335Z"/>
  <path transform="translate(1200,0)" d="M135 -110V5H290V715H135V830H415V-110Z"/>
  </g>
  <g fill="#7A857C" transform="translate(413.6,304) scale(0.016,-0.016)">
  <path transform="translate(600,0)" d="M82 0V730H207V334H295L426 550H565L402 284L571 0H429L295 228H207V0Z"/>
  <path transform="translate(1200,0)" d="M76 0V113H264V437H96V550H389V113H558V0ZM318 642Q280 642 258.0 661.5Q236 681 236 714Q236 747 258.0 766.5Q280 786 318 786Q356 786 378.0 766.5Q400 747 400 714Q400 681 378.0 661.5Q356 642 318 642Z"/>
  <path transform="translate(1800,0)" d="M389 0Q307 0 257.5 49.0Q208 98 208 178V617H27V730H333V181Q333 150 350.5 131.5Q368 113 398 113H559V0Z"/>
  <path transform="translate(2400,0)" d="M389 0Q307 0 257.5 49.0Q208 98 208 178V617H27V730H333V181Q333 150 350.5 131.5Q368 113 398 113H559V0Z"/>
  </g>
  <g fill="#7A857C" transform="translate(495.6,304) scale(0.016,-0.016)">
  <path transform="translate(0,0)" d="M185 -110V830H465V715H310V5H465V-110Z"/>
  <path transform="translate(600,0)" d="M398 -180V-26L402 99H401Q385 48 346.0 19.0Q307 -10 250 -10Q169 -10 120.0 47.0Q71 104 71 201V350Q71 446 120.5 503.0Q170 560 250 560Q308 560 347.0 531.0Q386 502 401 450V550H523V-180ZM297 98Q345 98 371.5 127.0Q398 156 398 209V341Q398 394 371.5 423.0Q345 452 297 452Q249 452 222.5 426.0Q196 400 196 348V202Q196 150 222.5 124.0Q249 98 297 98Z"/>
  <path transform="translate(1200,0)" d="M135 -110V5H290V715H135V830H415V-110Z"/>
  </g>
  <g fill="#7A857C" transform="translate(524.4,304) scale(0.016,-0.016)">
  <path transform="translate(600,0)" d="M398 -180V-26L402 99H401Q385 48 346.0 19.0Q307 -10 250 -10Q169 -10 120.0 47.0Q71 104 71 201V350Q71 446 120.5 503.0Q170 560 250 560Q308 560 347.0 531.0Q386 502 401 450V550H523V-180ZM297 98Q345 98 371.5 127.0Q398 156 398 209V341Q398 394 371.5 423.0Q345 452 297 452Q249 452 222.5 426.0Q196 400 196 348V202Q196 150 222.5 124.0Q249 98 297 98Z"/>
  <path transform="translate(1200,0)" d="M300 -10Q195 -10 135.0 48.5Q75 107 75 208V550H200V209Q200 157 226.0 128.0Q252 99 300 99Q347 99 373.5 128.0Q400 157 400 209V550H525V208Q525 107 464.0 48.5Q403 -10 300 -10Z"/>
  <path transform="translate(1800,0)" d="M76 0V113H264V437H96V550H389V113H558V0ZM318 642Q280 642 258.0 661.5Q236 681 236 714Q236 747 258.0 766.5Q280 786 318 786Q356 786 378.0 766.5Q400 747 400 714Q400 681 378.0 661.5Q356 642 318 642Z"/>
  <path transform="translate(2400,0)" d="M355 0Q278 0 232.5 44.5Q187 89 187 165V437H35V550H187V705H313V550H532V437H313V168Q313 144 326.5 128.5Q340 113 364 113H527V0Z"/>
  </g>
</svg>
