<svg xmlns="http://www.w3.org/2000/svg" viewBox="0 0 256 256" width="256" height="256" role="img" aria-label="reaper">
  <rect width="256" height="256" rx="48" fill="#0C0F0D"/>
  <rect x="89.0" y="49.0" width="14.0" height="14.0" rx="1.12" fill="#EAE4D6"/>
  <rect x="105.0" y="49.0" width="14.0" height="14.0" rx="1.12" fill="#EAE4D6"/>
  <rect x="121.0" y="49.0" width="14.0" height="14.0" rx="1.12" fill="#EAE4D6"/>
  <rect x="137.0" y="49.0" width="14.0" height="14.0" rx="1.12" fill="#EAE4D6"/>
  <rect x="153.0" y="49.0" width="14.0" height="14.0" rx="1.12" fill="#EAE4D6"/>
  <rect x="73.0" y="65.0" width="14.0" height="14.0" rx="1.12" fill="#EAE4D6"/>
  <rect x="89.0" y="65.0" width="14.0" height="14.0" rx="1.12" fill="#EAE4D6"/>
  <rect x="105.0" y="65.0" width="14.0" height="14.0" rx="1.12" fill="#EAE4D6"/>
  <rect x="121.0" y="65.0" width="14.0" height="14.0" rx="1.12" fill="#EAE4D6"/>
  <rect x="137.0" y="65.0" width="14.0" height="14.0" rx="1.12" fill="#EAE4D6"/>
  <rect x="153.0" y="65.0" width="14.0" height="14.0" rx="1.12" fill="#EAE4D6"/>
  <rect x="169.0" y="65.0" width="14.0" height="14.0" rx="1.12" fill="#EAE4D6"/>
  <rect x="57.0" y="81.0" width="14.0" height="14.0" rx="1.12" fill="#EAE4D6"/>
  <rect x="73.0" y="81.0" width="14.0" height="14.0" rx="1.12" fill="#EAE4D6"/>
  <rect x="89.0" y="81.0" width="14.0" height="14.0" rx="1.12" fill="#EAE4D6"/>
  <rect x="105.0" y="81.0" width="14.0" height="14.0" rx="1.12" fill="#EAE4D6"/>
  <rect x="121.0" y="81.0" width="14.0" height="14.0" rx="1.12" fill="#EAE4D6"/>
  <rect x="137.0" y="81.0" width="14.0" height="14.0" rx="1.12" fill="#EAE4D6"/>
  <rect x="153.0" y="81.0" width="14.0" height="14.0" rx="1.12" fill="#EAE4D6"/>
  <rect x="169.0" y="81.0" width="14.0" height="14.0" rx="1.12" fill="#EAE4D6"/>
  <rect x="185.0" y="81.0" width="14.0" height="14.0" rx="1.12" fill="#EAE4D6"/>
  <rect x="57.0" y="97.0" width="14.0" height="14.0" rx="1.12" fill="#EAE4D6"/>
  <rect x="73.0" y="97.0" width="14.0" height="14.0" rx="1.12" fill="#EAE4D6"/>
  <rect x="89.0" y="97.0" width="14.0" height="14.0" rx="1.12" fill="#EAE4D6"/>
  <rect x="105.0" y="97.0" width="14.0" height="14.0" rx="1.12" fill="#EAE4D6"/>
  <rect x="121.0" y="97.0" width="14.0" height="14.0" rx="1.12" fill="#EAE4D6"/>
  <rect x="137.0" y="97.0" width="14.0" height="14.0" rx="1.12" fill="#EAE4D6"/>
  <rect x="153.0" y="97.0" width="14.0" height="14.0" rx="1.12" fill="#EAE4D6"/>
  <rect x="169.0" y="97.0" width="14.0" height="14.0" rx="1.12" fill="#EAE4D6"/>
  <rect x="185.0" y="97.0" width="14.0" height="14.0" rx="1.12" fill="#EAE4D6"/>
  <rect x="57.0" y="113.0" width="14.0" height="14.0" rx="1.12" fill="#EAE4D6"/>
  <rect x="105.0" y="113.0" width="14.0" height="14.0" rx="1.12" fill="#EAE4D6"/>
  <rect x="121.0" y="113.0" width="14.0" height="14.0" rx="1.12" fill="#EAE4D6"/>
  <rect x="137.0" y="113.0" width="14.0" height="14.0" rx="1.12" fill="#EAE4D6"/>
  <rect x="185.0" y="113.0" width="14.0" height="14.0" rx="1.12" fill="#EAE4D6"/>
  <rect x="57.0" y="129.0" width="14.0" height="14.0" rx="1.12" fill="#EAE4D6"/>
  <rect x="105.0" y="129.0" width="14.0" height="14.0" rx="1.12" fill="#EAE4D6"/>
  <rect x="121.0" y="129.0" width="14.0" height="14.0" rx="1.12" fill="#EAE4D6"/>
  <rect x="137.0" y="129.0" width="14.0" height="14.0" rx="1.12" fill="#EAE4D6"/>
  <rect x="185.0" y="129.0" width="14.0" height="14.0" rx="1.12" fill="#EAE4D6"/>
  <rect x="57.0" y="145.0" width="14.0" height="14.0" rx="1.12" fill="#EAE4D6"/>
  <rect x="73.0" y="145.0" width="14.0" height="14.0" rx="1.12" fill="#EAE4D6"/>
  <rect x="89.0" y="145.0" width="14.0" height="14.0" rx="1.12" fill="#EAE4D6"/>
  <rect x="105.0" y="145.0" width="14.0" height="14.0" rx="1.12" fill="#EAE4D6"/>
  <rect x="137.0" y="145.0" width="14.0" height="14.0" rx="1.12" fill="#EAE4D6"/>
  <rect x="153.0" y="145.0" width="14.0" height="14.0" rx="1.12" fill="#EAE4D6"/>
  <rect x="169.0" y="145.0" width="14.0" height="14.0" rx="1.12" fill="#EAE4D6"/>
  <rect x="185.0" y="145.0" width="14.0" height="14.0" rx="1.12" fill="#EAE4D6"/>
  <rect x="73.0" y="161.0" width="14.0" height="14.0" rx="1.12" fill="#EAE4D6"/>
  <rect x="89.0" y="161.0" width="14.0" height="14.0" rx="1.12" fill="#EAE4D6"/>
  <rect x="105.0" y="161.0" width="14.0" height="14.0" rx="1.12" fill="#EAE4D6"/>
  <rect x="137.0" y="161.0" width="14.0" height="14.0" rx="1.12" fill="#EAE4D6"/>
  <rect x="153.0" y="161.0" width="14.0" height="14.0" rx="1.12" fill="#EAE4D6"/>
  <rect x="169.0" y="161.0" width="14.0" height="14.0" rx="1.12" fill="#EAE4D6"/>
  <rect x="73.0" y="177.0" width="14.0" height="14.0" rx="1.12" fill="#EAE4D6"/>
  <rect x="89.0" y="177.0" width="14.0" height="14.0" rx="1.12" fill="#EAE4D6"/>
  <rect x="105.0" y="177.0" width="14.0" height="14.0" rx="1.12" fill="#EAE4D6"/>
  <rect x="121.0" y="177.0" width="14.0" height="14.0" rx="1.12" fill="#EAE4D6"/>
  <rect x="137.0" y="177.0" width="14.0" height="14.0" rx="1.12" fill="#EAE4D6"/>
  <rect x="153.0" y="177.0" width="14.0" height="14.0" rx="1.12" fill="#EAE4D6"/>
  <rect x="169.0" y="177.0" width="14.0" height="14.0" rx="1.12" fill="#EAE4D6"/>
  <rect x="89.0" y="193.0" width="14.0" height="14.0" rx="1.12" fill="#EAE4D6"/>
  <rect x="121.0" y="193.0" width="14.0" height="14.0" rx="1.12" fill="#EAE4D6"/>
  <rect x="153.0" y="193.0" width="14.0" height="14.0" rx="1.12" fill="#EAE4D6"/>
  <rect x="153.0" y="113.0" width="14.0" height="14.0" rx="1.12" fill="#3FDD78"/>
  <rect x="169.0" y="113.0" width="14.0" height="14.0" rx="1.12" fill="#3FDD78"/>
  <rect x="153.0" y="129.0" width="14.0" height="14.0" rx="1.12" fill="#3FDD78"/>
  <rect x="169.0" y="129.0" width="14.0" height="14.0" rx="1.12" fill="#3FDD78"/>
</svg>
