<svg xmlns="http://www.w3.org/2000/svg" viewBox="0 0 200 258" width="200" height="258" role="img" aria-label="reaper">
  <g transform="translate(0,0) scale(1.0)"><path d="M 103 250 C 96 205 98 150 100 92" fill="none" stroke="#3F7A49" stroke-width="10" stroke-linecap="round"/><line x1="100" y1="42" x2="84" y2="6" stroke="#E3A82B" stroke-width="4" stroke-linecap="round"/><line x1="100" y1="42" x2="101" y2="0" stroke="#E3A82B" stroke-width="4" stroke-linecap="round"/><line x1="100" y1="42" x2="117" y2="8" stroke="#E3A82B" stroke-width="4" stroke-linecap="round"/><path d="M 0 -24 C 12 -11 12 11 0 24 C -12 11 -12 -11 0 -24 Z" transform="translate(100,54) rotate(0) scale(1.0)" fill="#E3A82B"/><path d="M 0 -24 C 12 -11 12 11 0 24 C -12 11 -12 -11 0 -24 Z" transform="translate(83,94) rotate(-33) scale(1.0)" fill="#E3A82B"/><path d="M 0 -24 C 12 -11 12 11 0 24 C -12 11 -12 -11 0 -24 Z" transform="translate(117,94) rotate(33) scale(1.0)" fill="#E3A82B"/><path d="M 0 -24 C 12 -11 12 11 0 24 C -12 11 -12 -11 0 -24 Z" transform="translate(83,128) rotate(-33) scale(1.0)" fill="#E3A82B"/><path d="M 0 -24 C 12 -11 12 11 0 24 C -12 11 -12 -11 0 -24 Z" transform="translate(117,128) rotate(33) scale(1.0)" fill="#E3A82B"/><path d="M 0 -24 C 12 -11 12 11 0 24 C -12 11 -12 -11 0 -24 Z" transform="translate(83,162) rotate(-33) scale(1.0)" fill="#E3A82B"/><path d="M 0 -24 C 12 -11 12 11 0 24 C -12 11 -12 -11 0 -24 Z" transform="translate(117,162) rotate(33) scale(1.0)" fill="#E3A82B"/><path d="M 0 -24 C 12 -11 12 11 0 24 C -12 11 -12 -11 0 -24 Z" transform="translate(76,208) rotate(-58) scale(0.8)" fill="#3F7A49"/><path d="M 0 -24 C 12 -11 12 11 0 24 C -12 11 -12 -11 0 -24 Z" transform="translate(152,234) rotate(58) scale(0.88)" fill="#E3A82B"/></g>
</svg>
